<?xml version="1.0" ?><!DOCTYPE svg  PUBLIC '-//W3C//DTD SVG 1.1//EN'  'http://www.w3.org/Graphics/SVG/1.1/DTD/svg11.dtd'><svg enable-background="new 0 0 128 128" id="Слой_1" version="1.1" viewBox="0 0 128 128" xml:space="preserve" xmlns="http://www.w3.org/2000/svg" xmlns:xlink="http://www.w3.org/1999/xlink"><path d="M54,59V45c0-0.6-0.4-1-1-1H28.8c-0.5,0-0.9,0.3-1,0.8L15.7,91.4c-0.4,1.6-0.6,3.3-0.6,5.1v7.4v5  c0.1,0.1,0.1,0.2,0.2,0.4l3.1,3.1c4.3,4.3,10.1,6.7,16.2,6.7h0c6.1,0,12-2.4,16.3-6.7L54,109v-5V79" fill="#A5A4AA"/><path d="M15,104v4.9c0.1,0.1,0.1,0.2,0.2,0.4l3.1,3.1c4.3,4.3,10.1,6.7,16.2,6.7c6.1,0,12-2.4,16.3-6.7L54,109v-5H15  z" fill="#B6D8D1"/><g><path d="M22.2,109.3c-0.1-0.1-0.1-0.2-0.2-0.4v-5v-7.4c0-1.7,0.2-3.4,0.6-5.1l12.2-46.6c0.1-0.5,0.5-0.8,1-0.8h-7   c-0.5,0-0.9,0.3-1,0.8L15.7,91.4c-0.4,1.6-0.6,3.3-0.6,5.1v7.4v5c0.1,0.1,0.1,0.2,0.2,0.4l3.1,3.1c4.3,4.3,10.1,6.7,16.2,6.7   c1.2,0,2.4-0.1,3.6-0.3c-4.8-0.7-9.3-2.9-12.8-6.4L22.2,109.3z" fill="#FFFFFF"/></g><rect fill="#8B8A8E" height="10" width="14" x="35" y="27"/><g><rect fill="#FFFFFF" height="10" width="5" x="35" y="27"/></g><rect fill="#8B8A8E" height="10" width="14" x="74" y="27"/><g><rect fill="#FFFFFF" height="10" width="5" x="74" y="27"/></g><path d="M69,59l0-14c0-0.6,0.4-1,1-1h24.2c0.5,0,0.9,0.3,1,0.8l12.2,46.9c0.4,1.6,0.6,3.3,0.6,5v7.4l0,5c0,0,0,0,0,0  l-3.3,3.2c-4.3,4.2-10.1,6.6-16.2,6.6h0c-6.1,0-12-2.4-16.3-6.8L69,109v-5l0-25" fill="#A5A4AA"/><path d="M69,104v4.9c0.1,0.1,0.1,0.2,0.2,0.4l3.1,3.1c4.3,4.3,10.1,6.7,16.2,6.7c6.1,0,12-2.4,16.3-6.7l3.3-3.3v-5  H69z" fill="#B6D8D1"/><g><path d="M75,109v-5l0-25V59l0-14c0-0.6,0.4-1,1-1h-6c-0.6,0-1,0.4-1,1l0,14v20l0,25v5l3.2,3.2   c4.3,4.3,10.2,6.8,16.3,6.8c1,0,2-0.1,2.9-0.2c-5-0.7-9.7-3-13.3-6.6L75,109z" fill="#FFFFFF"/></g><path d="M74,59H49c-2.8,0-5,2.2-5,5v10c0,2.8,2.2,5,5,5h25c2.8,0,5-2.2,5-5V64C79,61.2,76.8,59,74,59z" fill="#8B8A8E"/><g><path d="M50,74V64c0-2.8,2.2-5,5-5h-6c-2.8,0-5,2.2-5,5v10c0,2.8,2.2,5,5,5h6C52.2,79,50,76.8,50,74z" fill="#FFFFFF"/></g><path d="M109.1,110.3c0.1-0.1,0.3-0.3,0.3-0.5c0.1-0.2,0.1-0.4,0.1-0.6l0-12.4c0-1.8-0.2-3.6-0.7-5.4L96.6,44.5  c-0.2-1.2-1.3-2-2.5-2H70c-1.4,0-2.5,1.1-2.5,2.5l0,12.5h-12V45c0-1.4-1.1-2.5-2.5-2.5H28.8c-1.2,0-2.2,0.8-2.4,1.9L14.2,91  c-0.5,1.8-0.7,3.6-0.7,5.4v7.3c0,0.1,0,0.1,0,0.2s0,0.1,0,0.2v4.6c0,0.1,0,0.1,0,0.2c0,0.4,0.2,0.7,0.4,1c0.1,0.1,0.1,0.2,0.2,0.3  l3.1,3.1c4.6,4.6,10.7,7.1,17.2,7.1c6.5,0,12.7-2.5,17.3-7.2l3.3-3.3c0.3-0.3,0.4-0.7,0.4-1.1V80.5h12l0,28.5c0,0.1,0,0.1,0,0.2  c0,0,0,0.1,0,0.1c0,0.1,0,0.1,0.1,0.2c0,0,0,0.1,0,0.1c0,0.1,0.1,0.1,0.1,0.1c0,0,0,0.1,0.1,0.1c0,0,0.1,0.1,0.1,0.1  c0,0,0.1,0.1,0.1,0.1c0,0,0,0,0,0l3.2,3.2c4.6,4.6,10.8,7.2,17.4,7.2c6.5,0,12.6-2.5,17.2-7L109.1,110.3z M49,77.5  c-1.9,0-3.5-1.6-3.5-3.5V64c0-1.9,1.6-3.5,3.5-3.5h25c1.9,0,3.5,1.6,3.5,3.5v10c0,1.9-1.6,3.5-3.5,3.5H49z M49.7,111.2  c-4.1,4.1-9.5,6.3-15.2,6.3c-5.7,0-11.1-2.2-15.1-6.2l-0.8-0.8H24c0.8,0,1.5-0.7,1.5-1.5s-0.7-1.5-1.5-1.5h-7.5v-2h36v2.9  L49.7,111.2z M52.5,102.5h-36v-6c0-1.6,0.2-3.1,0.6-4.7l12.1-46.3h23.3v12H49c-3.6,0-6.5,2.9-6.5,6.5v10c0,3.6,2.9,6.5,6.5,6.5h3.5  V102.5z M74,80.5c3.6,0,6.5-2.9,6.5-6.5V64c0-3.6-2.9-6.5-6.5-6.5h-3.5l0-12h23.3l12.1,46.6c0.4,1.5,0.6,3.1,0.6,4.7l0,5.7  c0,0,0,0,0,0h-36l0-22H74z M88.6,117.5c-5.8,0-11.2-2.2-15.3-6.3l-0.6-0.6l5.3,0.1c0,0,0,0,0,0c0.8,0,1.5-0.7,1.5-1.5  c0-0.8-0.6-1.5-1.5-1.5l-7.6-0.1l0-2h36c0,0,0,0,0,0l0,3.1l-2.8,2.8C99.6,115.3,94.3,117.5,88.6,117.5z" fill="#62355C"/><path d="M89.5,28.5H91c0.8,0,1.5-0.7,1.5-1.5s-0.7-1.5-1.5-1.5H71c-0.8,0-1.5,0.7-1.5,1.5s0.7,1.5,1.5,1.5h1.5V35  c0,0.2,0,0.3,0.1,0.5H72c-0.8,0-1.5,0.7-1.5,1.5s0.7,1.5,1.5,1.5h18c0.8,0,1.5-0.7,1.5-1.5s-0.7-1.5-1.5-1.5h-0.6  c0.1-0.2,0.1-0.3,0.1-0.5V28.5z M75.4,35.5c0.1-0.2,0.1-0.3,0.1-0.5v-6.5h11V35c0,0.2,0,0.3,0.1,0.5H75.4z" fill="#62355C"/><path d="M50.5,28.5H52c0.8,0,1.5-0.7,1.5-1.5s-0.7-1.5-1.5-1.5H32c-0.8,0-1.5,0.7-1.5,1.5s0.7,1.5,1.5,1.5h1.5V35  c0,0.2,0,0.3,0.1,0.5H33c-0.8,0-1.5,0.7-1.5,1.5s0.7,1.5,1.5,1.5h18c0.8,0,1.5-0.7,1.5-1.5s-0.7-1.5-1.5-1.5h-0.6  c0.1-0.2,0.1-0.3,0.1-0.5V28.5z M36.4,35.5c0.1-0.2,0.1-0.3,0.1-0.5v-6.5h11V35c0,0.2,0,0.3,0.1,0.5H36.4z" fill="#62355C"/><path d="M69,67.5H54c-0.8,0-1.5,0.7-1.5,1.5s0.7,1.5,1.5,1.5h15c0.8,0,1.5-0.7,1.5-1.5S69.8,67.5,69,67.5z" fill="#62355C"/></svg>