<?xml version="1.0" ?><!DOCTYPE svg  PUBLIC '-//W3C//DTD SVG 1.1//EN'  'http://www.w3.org/Graphics/SVG/1.1/DTD/svg11.dtd'><svg enable-background="new 0 0 128 128" id="Слой_1" version="1.1" viewBox="0 0 128 128" xml:space="preserve" xmlns="http://www.w3.org/2000/svg" xmlns:xlink="http://www.w3.org/1999/xlink"><g><path d="M13.7,108.2L3.3,48.5C1.5,38,8.2,27.9,18.6,25.5l82-18.6c13.4-3,25.8,8.1,24.3,21.7L116,107   c-1.1,10.1-9.7,17.8-19.9,17.8H33.4C23.6,124.7,15.3,117.8,13.7,108.2z" fill="#D8EFF4"/></g><g><g><g><g><g><path d="M105.6,74.1h0.9c4.4,0,8-3.6,8-8c0-4.4-3.6-8-8-8H85c-2.5,0-4.5-2-4.5-4.5V29.4       c0-6.9-5.6-12.5-12.5-12.5c-1.5,0-2.7,1.2-2.7,2.7v13.4l-3.6,10.8c-2.3,8.1-7.4,15.1-14.4,19.9l-6.4,4.3v40.2l0.6-0.3l0.3,10.2       c5.8,4.1,12.8,6.3,19.9,6.3h34.9c4,0,7.2-3.2,7.2-7.2s-3.2-7.2-7.2-7.2h1.8h3.6c4.9,0,8.9-4,8.9-8.9v0c0-4.4-3.2-8.1-7.4-8.8       l0.2-0.1h1.8c4.9,0,8.9-4,8.9-8.9C114.5,78.1,110.5,74.1,105.6,74.1z" fill="#FEE2CF"/></g></g></g><g><g><g><path d="M68,16.8C68,16.8,68,16.8,68,16.8c-1.5,0-2.7,1.2-2.7,2.7v13.4h0c2.5,0,4.5-2,4.5-4.5v-9.9       C69.8,17.6,69,16.8,68,16.8z" fill="#FFFFFF"/></g></g></g><g opacity="0.15"><g><g><path d="M49.2,64.5c1.7-2.1,3.5-4.5,3.3-5.1l-11.5,8.5v40.2l0.6-0.3l0.3,10.2c1.4,1,11.9,4.9,13.4,5.7h0       c-5.3-1.8-8.9-6.8-8.9-12.4V72.6C46.3,69.7,47.3,66.8,49.2,64.5z" fill="#62345B"/></g></g></g><g opacity="0.1"><g><g><g><path d="M103.8,117.5c0.3-4.2-3-7.6-7.1-7.6h1.8h3.6c4.9,0,8.9-4,8.9-8.9v0c0-4.4-3.2-8.1-7.4-8.8l0.2-0.1h1.5        c4.8,0,8.9-3.6,9.2-8.3c0.3-5.2-3.8-9.5-8.9-9.5h0.6c4.3,0,8-3.2,8.3-7.5c0.3-4.7-3.4-8.6-8-8.6H93.1h-4.5        c5,0,9.1,3.9,9.4,8.9l0.1,2c0.7,15.2-2.4,30.2-9.1,43.8l-3.1,6.2c-1.6,3.2-4.8,5.2-8.4,5.2h-3.1h22        C100.2,124.2,103.5,121.3,103.8,117.5z" fill="#62345B"/></g></g></g></g><g opacity="0.2"><g><g><g><path d="M76.1,29.4l-1.7,21.6c-0.5,5.8,5.3,10,10.6,7.9l0,0c-2.5,0-4.5-2.9-4.5-5.4V29.4        c0-6.9-5.6-12.5-12.5-12.5c-0.5,0-1,0.2-1.4,0.4C72.1,18.6,76.1,23.5,76.1,29.4z" fill="#62345B"/></g></g></g></g><g><g><g><g><path d="M106.5,75.4h-0.9c-0.7,0-1.3-0.6-1.3-1.3s0.6-1.3,1.3-1.3h0.9c3.7,0,6.7-3,6.7-6.7        c0-3.7-3-6.7-6.7-6.7H85c-3.2,0-5.8-2.6-5.8-5.8V29.4c0-6.2-5-11.2-11.2-11.2c-0.7,0-1.3,0.6-1.3,1.3v13.4        c0,0.1,0,0.3-0.1,0.4L63,44.1c-2.4,8.3-7.7,15.7-14.9,20.5L41.7,69c-0.6,0.4-1.4,0.3-1.9-0.4c-0.4-0.6-0.3-1.4,0.4-1.9        l6.4-4.3c6.7-4.5,11.6-11.3,13.9-19.1L64,32.7V19.5c0-2.2,1.8-4,4-4c7.6,0,13.9,6.2,13.9,13.9v24.1c0,1.7,1.4,3.1,3.1,3.1        h21.5c5.2,0,9.4,4.2,9.4,9.4S111.7,75.4,106.5,75.4z" fill="#62345B"/></g></g></g><g><g><g><path d="M105.6,93.3l-3.6,0c-0.7,0-1.3-0.6-1.3-1.4c0-0.7,0.6-1.3,1.4-1.3l3.6,0c4.2,0,7.6-3.4,7.6-7.6        s-3.4-7.6-7.6-7.6c-0.7,0-1.3-0.6-1.3-1.3s0.6-1.3,1.3-1.3c5.7,0,10.3,4.6,10.3,10.3S111.3,93.3,105.6,93.3z" fill="#62345B"/></g></g></g><g><g><g><path d="M96.6,125.5H61.7c-7.4,0-14.6-2.2-20.6-6.5c-0.6-0.4-0.8-1.3-0.3-1.9c0.4-0.6,1.3-0.8,1.9-0.3        c5.6,3.9,12.2,6,19.1,6h34.9c3.2,0,5.8-2.6,5.8-5.8s-2.6-5.8-5.8-5.8c-0.7,0-1.3-0.6-1.3-1.3s0.6-1.3,1.3-1.3h5.4        c4.2,0,7.6-3.4,7.6-7.6c0-4.2-3.4-7.6-7.6-7.6c-0.7,0-1.3-0.6-1.3-1.3s0.6-1.3,1.3-1.3c5.7,0,10.3,4.6,10.3,10.3        c0,5.4-4.2,9.8-9.5,10.3c1.4,1.5,2.3,3.6,2.3,5.8C105.1,121.7,101.3,125.5,96.6,125.5z" fill="#62345B"/></g></g></g></g><g><g><g><path d="M13.5,124.2h27.5V68.4c0-2.8-2.2-5-5-5H13.5V124.2z" fill="#ADA2B5"/></g></g></g><g opacity="0.2"><g><g><g><rect fill="#62345B" height="8.9" width="27.5" x="13.5" y="115.2"/></g></g></g></g><g><g><g><path d="M40.9,125.5H13.5c-0.7,0-1.3-0.6-1.3-1.3V63.4c0-0.7,0.6-1.3,1.3-1.3h23c3.2,0,5.8,2.6,5.8,5.8v56.3       C42.3,124.9,41.7,125.5,40.9,125.5z M14.8,122.8h24.8V67.9c0-1.7-1.4-3.1-3.1-3.1H14.8V122.8z" fill="#62345B"/></g></g></g><g><g><g><path d="       M98.4,109.8" fill="none" stroke="#62345B" stroke-linecap="round" stroke-linejoin="round" stroke-miterlimit="10" stroke-width="3"/></g></g></g></g><g><g><path d="M27.2,119.2c-1.7,0-3-1.3-3-3s1.3-3,3-3s3,1.3,3,3S28.9,119.2,27.2,119.2z" fill="#EDB77F"/></g></g><g><g><path d="M27.2,120.2c-2.2,0-4-1.8-4-4c0-2.2,1.8-4,4-4s4,1.8,4,4C31.2,118.4,29.4,120.2,27.2,120.2z M27.2,114.9     c-0.7,0-1.3,0.6-1.3,1.3s0.6,1.3,1.3,1.3c0.7,0,1.3-0.6,1.3-1.3S27.9,114.9,27.2,114.9z" fill="#62345B"/></g></g></g><g><g><g><path d="M106,74.1L106,74.1l-0.4,0C105.7,74.1,105.9,74.1,106,74.1z" fill="#62345B"/></g></g></g></svg>