<?xml version="1.0" ?><!DOCTYPE svg  PUBLIC '-//W3C//DTD SVG 1.1//EN'  'http://www.w3.org/Graphics/SVG/1.1/DTD/svg11.dtd'><svg enable-background="new 0 0 128 128" id="Слой_1" version="1.1" viewBox="0 0 128 128" xml:space="preserve" xmlns="http://www.w3.org/2000/svg" xmlns:xlink="http://www.w3.org/1999/xlink"><g><g><rect fill="#EE7F8F" height="110" width="100" x="14" y="14"/></g><g><polyline fill="#ADA2B5" points="56,124 56,96 72,96 72,124   "/></g><g><g><rect fill="#D8EFF4" height="18" width="20" x="54" y="22"/></g><g opacity="0.5"><polygon fill="#FFFFFF" points="54,40 54,22 74,22    "/></g><g><rect fill="#D8EFF4" height="18" width="20" x="54" y="59"/></g><g opacity="0.5"><polygon fill="#FFFFFF" points="54,77 54,59 74,59    "/></g><g><rect fill="#D8EFF4" height="18" width="20" x="20" y="96"/></g><g opacity="0.5"><polygon fill="#FFFFFF" points="20,114 20,96 40,96    "/></g><g><rect fill="#D8EFF4" height="18" width="20" x="88" y="96"/></g><g opacity="0.5"><polygon fill="#FFFFFF" points="88,114 88,96 108,96    "/></g><g><rect fill="#D8EFF4" height="13" width="20" x="20" y="22"/></g><g opacity="0.5"><polygon fill="#FFFFFF" points="20,35 20,22 40,22    "/></g><g><rect fill="#D8EFF4" height="13" width="20" x="88" y="22"/></g><g opacity="0.5"><polygon fill="#FFFFFF" points="88,35 88,22 108,22    "/></g><g><rect fill="#D8EFF4" height="13" width="20" x="20" y="59"/></g><g opacity="0.5"><polygon fill="#FFFFFF" points="20,72 20,59 40,59    "/></g><g><rect fill="#D8EFF4" height="13" width="20" x="88" y="59"/></g><g opacity="0.5"><polygon fill="#FFFFFF" points="88,72 88,59 108,59    "/></g></g><g><path d="M14,72.5c-0.8,0-1.5-0.7-1.5-1.5V51c0-0.8,0.7-1.5,1.5-1.5s1.5,0.7,1.5,1.5v20    C15.5,71.8,14.8,72.5,14,72.5z" fill="#62345B"/></g><g><path d="M114,125.5H14c-0.4,0-0.8-0.2-1.1-0.4s-0.4-0.7-0.4-1.1l0-36c0-0.8,0.7-1.5,1.5-1.5l0,0    c0.8,0,1.5,0.7,1.5,1.5l0,34.5h97V88c0-0.8,0.7-1.5,1.5-1.5s1.5,0.7,1.5,1.5v36C115.5,124.8,114.8,125.5,114,125.5z" fill="#62345B"/></g><g><path d="M114,72.5c-0.8,0-1.5-0.7-1.5-1.5V51c0-0.8,0.7-1.5,1.5-1.5s1.5,0.7,1.5,1.5v20    C115.5,71.8,114.8,72.5,114,72.5z" fill="#62345B"/></g><g opacity="0.2"><rect fill="#62345B" height="5" width="100" x="14" y="14"/></g><g><rect fill="#ADA2B5" height="10" width="120" x="4" y="4"/></g><g><path d="M114,35.5c-0.8,0-1.5-0.7-1.5-1.5V14c0-0.8,0.7-1.5,1.5-1.5h8.5v-7H5.5v7H14c0.4,0,0.8,0.2,1.1,0.4    s0.4,0.7,0.4,1.1l0,20c0,0.8-0.7,1.5-1.5,1.5l0,0c-0.8,0-1.5-0.7-1.5-1.5l0-18.5H4c-0.8,0-1.5-0.7-1.5-1.5V4    c0-0.8,0.7-1.5,1.5-1.5h120c0.8,0,1.5,0.7,1.5,1.5v10c0,0.8-0.7,1.5-1.5,1.5h-8.5V34C115.5,34.8,114.8,35.5,114,35.5z" fill="#62345B"/></g><g><path d="M124,15.5H4c-0.8,0-1.5-0.7-1.5-1.5s0.7-1.5,1.5-1.5h120c0.8,0,1.5,0.7,1.5,1.5S124.8,15.5,124,15.5z" fill="#62345B"/></g><g><g><rect fill="#F7F4CD" height="17" width="40" x="4" y="34"/></g><g><rect fill="#F7F4CD" height="17" width="40" x="4" y="71"/></g><g><rect fill="#F7F4CD" height="17" width="40" x="84" y="34"/></g><g><rect fill="#F7F4CD" height="17" width="40" x="84" y="71"/></g></g><g><g><path d="M44,52.5H4c-0.8,0-1.5-0.7-1.5-1.5V34c0-0.8,0.7-1.5,1.5-1.5h40c0.8,0,1.5,0.7,1.5,1.5v17     C45.5,51.8,44.8,52.5,44,52.5z M5.5,49.5h37v-14h-37V49.5z" fill="#62345B"/></g><g><path d="M44,89.5H4c-0.8,0-1.5-0.7-1.5-1.5V71c0-0.8,0.7-1.5,1.5-1.5h40c0.8,0,1.5,0.7,1.5,1.5v17     C45.5,88.8,44.8,89.5,44,89.5z M5.5,86.5h37v-14h-37V86.5z" fill="#62345B"/></g><g><path d="M124,52.5H84c-0.8,0-1.5-0.7-1.5-1.5V34c0-0.8,0.7-1.5,1.5-1.5h40c0.8,0,1.5,0.7,1.5,1.5v17     C125.5,51.8,124.8,52.5,124,52.5z M85.5,49.5h37v-14h-37V49.5z" fill="#62345B"/></g><g><path d="M124,89.5H84c-0.8,0-1.5-0.7-1.5-1.5V71c0-0.8,0.7-1.5,1.5-1.5h40c0.8,0,1.5,0.7,1.5,1.5v17     C125.5,88.8,124.8,89.5,124,89.5z M85.5,86.5h37v-14h-37V86.5z" fill="#62345B"/></g></g><g><path d="M72,125.5c-0.8,0-1.5-0.7-1.5-1.5V97.5h-13V124c0,0.8-0.7,1.5-1.5,1.5s-1.5-0.7-1.5-1.5V96    c0-0.8,0.7-1.5,1.5-1.5h16c0.8,0,1.5,0.7,1.5,1.5v28C73.5,124.8,72.8,125.5,72,125.5z" fill="#62345B"/></g><g><g><path d="M74,41.5H54c-0.8,0-1.5-0.7-1.5-1.5V22c0-0.8,0.7-1.5,1.5-1.5h20c0.8,0,1.5,0.7,1.5,1.5v18     C75.5,40.8,74.8,41.5,74,41.5z M55.5,38.5h17v-15h-17V38.5z" fill="#62345B"/></g><g><path d="M74,78.5H54c-0.8,0-1.5-0.7-1.5-1.5V59c0-0.8,0.7-1.5,1.5-1.5h20c0.8,0,1.5,0.7,1.5,1.5v18     C75.5,77.8,74.8,78.5,74,78.5z M55.5,75.5h17v-15h-17V75.5z" fill="#62345B"/></g><g><path d="M40,115.5H20c-0.8,0-1.5-0.7-1.5-1.5V96c0-0.8,0.7-1.5,1.5-1.5h20c0.8,0,1.5,0.7,1.5,1.5v18     C41.5,114.8,40.8,115.5,40,115.5z M21.5,112.5h17v-15h-17V112.5z" fill="#62345B"/></g><g><path d="M108,115.5H88c-0.8,0-1.5-0.7-1.5-1.5V96c0-0.8,0.7-1.5,1.5-1.5h20c0.8,0,1.5,0.7,1.5,1.5v18     C109.5,114.8,108.8,115.5,108,115.5z M89.5,112.5h17v-15h-17V112.5z" fill="#62345B"/></g><g><path d="M40,34.5c-0.8,0-1.5-0.7-1.5-1.5v-9.5h-17V33c0,0.8-0.7,1.5-1.5,1.5s-1.5-0.7-1.5-1.5V22     c0-0.8,0.7-1.5,1.5-1.5h20c0.8,0,1.5,0.7,1.5,1.5v11C41.5,33.8,40.8,34.5,40,34.5z" fill="#62345B"/></g><g><path d="M108,34.5c-0.8,0-1.5-0.7-1.5-1.5v-9.5h-17V33c0,0.8-0.7,1.5-1.5,1.5s-1.5-0.7-1.5-1.5V22     c0-0.8,0.7-1.5,1.5-1.5h20c0.8,0,1.5,0.7,1.5,1.5v11C109.5,33.8,108.8,34.5,108,34.5z" fill="#62345B"/></g><g><path d="M40,71.5c-0.8,0-1.5-0.7-1.5-1.5v-9.5h-17V70c0,0.8-0.7,1.5-1.5,1.5s-1.5-0.7-1.5-1.5V59     c0-0.8,0.7-1.5,1.5-1.5h20c0.8,0,1.5,0.7,1.5,1.5v11C41.5,70.8,40.8,71.5,40,71.5z" fill="#62345B"/></g><g><path d="M108,71.5c-0.8,0-1.5-0.7-1.5-1.5v-9.5h-17V70c0,0.8-0.7,1.5-1.5,1.5s-1.5-0.7-1.5-1.5V59     c0-0.8,0.7-1.5,1.5-1.5h20c0.8,0,1.5,0.7,1.5,1.5v11C109.5,70.8,108.8,71.5,108,71.5z" fill="#62345B"/></g></g></g><g opacity="0.2"><polygon fill="#62345B" points="14,51 44,51 44,56 14,53  "/></g><g opacity="0.2"><polygon fill="#62345B" points="14,88 44,88 44,93 14,90  "/></g><g opacity="0.2"><polygon fill="#62345B" points="84,51 114,51 114,56 84,53  "/></g><g opacity="0.2"><polygon fill="#62345B" points="84,88 114,88 114,93 84,90  "/></g><g><g opacity="0.2"><path d="M57.2,65.3c0.5-1.8,0.7-3.6,0.7-5.5c0-12-9.8-21.8-21.8-21.8c-11.3,0-20.6,8.6-21.7,19.6    c-0.1,0.1-0.3,0.1-0.4,0.2l0,47.7c3.7,1.9,7.9,3,12.3,3h18.2C57.5,108.5,68,98,68,85C68,77,63.8,69.5,57.2,65.3z" fill="#62345B"/></g><g><path d="M50.9,67.7c1.2-2.4,2-5,2-7.9c0-9.3-7.5-16.8-16.8-16.8s-16.8,7.5-16.8,16.8c0,0.4,0,0.8,0,1.2    C10.7,63.9,4.5,72,4.5,81.7c0,12.1,9.8,21.8,21.8,21.8h18.2C54.7,103.5,63,95.2,63,85C63,77.1,58,70.3,50.9,67.7z" fill="#D8E7AB"/></g><g><path d="M44.5,105H26.3C13.5,105,3,94.5,3,81.7C3,72,8.9,63.4,17.8,59.9c0,0,0-0.1,0-0.1    c0-10.1,8.2-18.3,18.3-18.3s18.3,8.2,18.3,18.3c0,2.4-0.5,4.9-1.4,7.1c7,3.3,11.5,10.3,11.5,18.1C64.5,96,55.5,105,44.5,105z     M36.1,44.5c-8.4,0-15.3,6.9-15.3,15.3c0,0.4,0,0.7,0,1.1c0,0.7-0.4,1.3-1,1.5C11.5,65.2,6,72.9,6,81.7C6,92.9,15.1,102,26.3,102    h18.2c9.4,0,17-7.6,17-17c0-7.1-4.4-13.5-11.1-15.9c-0.4-0.2-0.7-0.5-0.9-0.9c-0.2-0.4-0.1-0.9,0.1-1.2c1.2-2.2,1.8-4.7,1.8-7.2    C51.4,51.4,44.5,44.5,36.1,44.5z" fill="#62345B"/></g><g><path d="M33.7,124.5c-0.8,0-1.5-0.7-1.5-1.5V66.5c0-0.8,0.7-1.5,1.5-1.5s1.5,0.7,1.5,1.5V123    C35.2,123.8,34.6,124.5,33.7,124.5z" fill="#62345B"/></g><g><path d="M33.7,96.7c-0.6,0-1.1-0.3-1.3-0.8c-0.4-0.7-0.1-1.6,0.7-2l13.4-6.7c0.7-0.4,1.6-0.1,2,0.7    c0.4,0.7,0.1,1.6-0.7,2l-13.4,6.7C34.2,96.7,34,96.7,33.7,96.7z" fill="#62345B"/></g><g><path d="M33.7,83.3c-0.2,0-0.5-0.1-0.7-0.2l-13.4-6.7c-0.7-0.4-1-1.3-0.7-2c0.4-0.7,1.3-1,2-0.7l13.4,6.7    c0.7,0.4,1,1.3,0.7,2C34.8,83,34.3,83.3,33.7,83.3z" fill="#62345B"/></g></g></svg>