<svg xmlns="http://www.w3.org/2000/svg" width="78" height="84" viewBox="0 0 78 84">
  <g fill="none" fill-rule="evenodd">
    <g transform="translate(0 40)">
      <path fill="#D4D3EA" d="M76.6,36.3 L76.6,31 C75.8,29.6 2.1,29.6 1.3,31 L1.3,36.6 L1.3,36.6 C1.4,39.7 6.1,42.2 13.3,42.2 L64.6,42.2 C72.1,42.2 76.9,39.6 76.6,36.3 L76.6,36.3 L76.6,36.3 Z"/>
      <path stroke="#62345B" stroke-width="2.5" d="M76.6,31.1 C75.8,29.7 2.1,29.7 1.3,31.1 L1.3,36.7 C1.4,39.8 6.1,42.3 13.3,42.3 L64.6,42.3 C72,42.3 76.8,39.7 76.6,36.4 L76.6,31.1 L76.6,31.1 Z"/>
      <path fill="#ECEBEC" d="M64.7,36.5 L13.4,36.5 C4.9,36.5 -0.2,33.1 1.9,29.2 L15.3,3.8 C16.1,2.4 20.4,1.2 25.1,1.2 L53,1.2 C57.7,1.2 62,2.3 62.8,3.8 L76.2,29.2 C78.2,33 73.2,36.5 64.7,36.5 L64.7,36.5 Z"/>
      <path fill="#62345B" d="M64.7,37.5 L13.3,37.5 C7.3,37.5 2.6,35.8 0.9,33.1 C0.1,31.8 0.1,30.2 0.8,28.7 L14.2,3.3 C15.3,1.2 20.5,0.2 24.9,0.2 L53,0.2 C57.4,0.2 62.6,1.2 63.7,3.3 L77.1,28.7 C77.9,30.2 77.8,31.7 77,33.1 C75.4,35.8 70.6,37.5 64.7,37.5 L64.7,37.5 Z M25,2.2 C19.9,2.2 16.5,3.5 16.1,4.2 L2.7,29.6 C2.3,30.4 2.3,31.2 2.7,32 C3.7,33.6 7,35.4 13.3,35.4 L64.6,35.4 C70.9,35.4 74.3,33.5 75.2,32 C75.6,31.3 75.7,30.5 75.2,29.6 L61.9,4.2 C61.5,3.5 58.2,2.2 53,2.2 L25,2.2 L25,2.2 Z"/>
      <path fill="#D4D3EA" d="M58.9,25.8 L19.1,25.8 C14.2,25.8 11,24.1 11.9,22 L19.6,4.1 C20,3.1 22.9,2.3 26.1,2.3 L52.1,2.3 C55.3,2.3 58.2,3.1 58.6,4.1 L66.3,22 C67,24.1 63.8,25.8 58.9,25.8 L58.9,25.8 Z"/>
      <path fill="#62345B" d="M58.9,26.8 L19.1,26.8 C15.3,26.8 12.2,25.8 11.2,24.1 C10.7,23.3 10.6,22.4 11,21.6 L18.7,3.7 C19.5,1.8 23.8,1.3 26.2,1.3 L52.2,1.3 C54.6,1.3 58.9,1.8 59.7,3.7 L67.4,21.6 C67.8,22.4 67.7,23.3 67.2,24.1 C65.8,25.8 62.7,26.8 58.9,26.8 L58.9,26.8 Z M26,3.4 C22.9,3.4 20.7,4.2 20.4,4.6 L12.8,22.5 C12.7,22.7 12.7,22.9 12.9,23.1 C13.5,23.9 15.7,24.9 19.1,24.9 L59,24.9 C62.5,24.9 64.7,24 65.2,23.1 C65.3,22.9 65.4,22.7 65.3,22.5 L57.6,4.6 C57.3,4.2 55.1,3.5 52,3.5 L26,3.5 L26,3.4 Z"/>
      <path fill="#62345B" d="M9.2,2.8 C9.3,4 7.4,4.9 5,4.9 C2.6,4.9 0.7,3.9 0.8,2.8 C0.9,1.7 2.8,0.9 5,0.9 C7.2,0.9 9.1,1.7 9.2,2.8 L9.2,2.8 Z" opacity=".2" transform="translate(34 28)"/>
    </g>
    <g transform="translate(14)">
      <polygon fill="#FFFFFF" points="44.483 24.56 44.483 51.675 6.517 51.675 6.517 24.56 25.5 5.111"/>
      <g transform="translate(.472 .473)">
        <polyline fill="#C9ADA8" points="11.522 51.202 11.522 30.002 22.053 30.002 22.053 51.202"/>
        <path fill="#62345B" d="M44.0111111,51.8169643 L6.04444444,51.8169643 C5.71388889,51.8169643 5.43055556,51.5330357 5.43055556,51.2017857 L5.43055556,24.0866071 C5.43055556,23.7553571 5.71388889,23.4714286 6.04444444,23.4714286 C6.375,23.4714286 6.65833333,23.7553571 6.65833333,24.0866071 L6.65833333,50.5392857 L43.3972222,50.5392857 L43.3972222,24.0866071 C43.3972222,23.7553571 43.6805556,23.4714286 44.0111111,23.4714286 C44.3416667,23.4714286 44.625,23.7553571 44.625,24.0866071 L44.625,51.1544643 C44.6722222,51.5330357 44.3888889,51.8169643 44.0111111,51.8169643 L44.0111111,51.8169643 Z"/>
        <polygon fill="#62345B" points=".378 19.828 .378 22.762 19.361 3.738 38.344 22.762 38.344 19.828 19.361 .379" opacity=".2" transform="translate(5.667 4.259)"/>
        <path fill="#C9ADA8" d="M25.0277778,0.378571429 L0.755555556,24.7491071 C0.188888889,25.3169643 0.188888889,26.2633929 0.755555556,26.8785714 L0.755555556,26.8785714 C1.32222222,27.4464286 2.26666667,27.4464286 2.88055556,26.8785714 L25.075,4.6375 L47.2694444,26.8785714 C47.8361111,27.4464286 48.7805556,27.4464286 49.3944444,26.8785714 L49.3944444,26.8785714 C49.9611111,26.3107143 49.9611111,25.3642857 49.3944444,24.7491071 L44.1055556,19.4491071 L44.1055556,4.6375 L37.6833333,4.6375 L37.6833333,13.1080357 L25.0277778,0.378571429 L25.0277778,0.378571429 Z"/>
        <polygon fill="#F5F5F5" points="44.011 19.449 44.011 4.638 37.683 4.638 37.683 13.108"/>
        <g fill="#62345B" opacity=".2" transform="translate(37.306 9.464)">
          <polygon points="6.706 6.388 .378 .047 .378 3.644 6.706 9.985"/>
        </g>
        <path fill="#62345B" d="M22.0527778,51.8169643 C21.7222222,51.8169643 21.4388889,51.5330357 21.4388889,51.2017857 L21.4388889,30.6642857 L12.1361111,30.6642857 L12.1361111,51.2017857 C12.1361111,51.5330357 11.8527778,51.8169643 11.5222222,51.8169643 C11.1916667,51.8169643 10.9083333,51.5330357 10.9083333,51.2017857 L10.9083333,30.0017857 C10.9083333,29.6705357 11.1916667,29.3866071 11.5222222,29.3866071 L22.1,29.3866071 C22.4305556,29.3866071 22.7138889,29.6705357 22.7138889,30.0017857 L22.7138889,51.1544643 C22.7138889,51.5330357 22.4305556,51.8169643 22.0527778,51.8169643 L22.0527778,51.8169643 Z"/>
        <rect width="10.578" height="10.6" x="28.003" y="30.002" fill="#D8EFF4"/>
        <g fill="#FFFFFF" opacity=".5" transform="translate(27.861 29.813)">
          <polygon points=".142 10.789 .142 .189 10.672 .189"/>
        </g>
        <path fill="#62345B" d="M38.5333333,41.2169643 L28.0027778,41.2169643 C27.6722222,41.2169643 27.3888889,40.9330357 27.3888889,40.6017857 L27.3888889,30.0017857 C27.3888889,29.6705357 27.6722222,29.3866071 28.0027778,29.3866071 L38.5805556,29.3866071 C38.9111111,29.3866071 39.1944444,29.6705357 39.1944444,30.0017857 L39.1944444,40.6017857 C39.1944444,40.9330357 38.9111111,41.2169643 38.5333333,41.2169643 L38.5333333,41.2169643 Z M28.6166667,39.9866071 L37.9194444,39.9866071 L37.9194444,30.6642857 L28.6166667,30.6642857 L28.6166667,39.9866071 L28.6166667,39.9866071 Z"/>
      </g>
      <ellipse cx="17.283" cy="35.775" fill="#D8EFF4" rx="2.125" ry="2.129"/>
      <path fill="#62345B" d="M17.2833333 38.5196429C15.7722222 38.5196429 14.5444444 37.2892857 14.5444444 35.775 14.5444444 34.2607143 15.7722222 33.0303571 17.2833333 33.0303571 18.7944444 33.0303571 20.0222222 34.2607143 20.0222222 35.775 20.0222222 37.2892857 18.7944444 38.5196429 17.2833333 38.5196429L17.2833333 38.5196429zM17.2833333 34.3080357C16.4805556 34.3080357 15.8194444 34.9705357 15.8194444 35.775 15.8194444 36.5794643 16.4805556 37.2419643 17.2833333 37.2419643 18.0861111 37.2419643 18.7472222 36.5794643 18.7472222 35.775 18.7472222 34.9705357 18.0861111 34.3080357 17.2833333 34.3080357L17.2833333 34.3080357zM50.2444444 24.7491071L45.1444444 19.6383929 45.1444444 5.11071429C45.1444444 4.77946429 44.8611111 4.49553571 44.5305556 4.49553571L38.1555556 4.49553571C37.825 4.49553571 37.5416667 4.77946429 37.5416667 5.11071429L37.5416667 12.0196429 25.925.425892857C25.6888889.189285714 25.2638889.189285714 25.0277778.425892857L.755555556 24.7491071C.330555556 25.175.141666667 25.6955357.141666667 26.2633929.141666667 26.83125.377777778 27.3517857.755555556 27.7776786 1.18055556 28.2035714 1.7 28.3928571 2.26666667 28.3928571 2.83333333 28.3928571 3.35277778 28.15625 3.77777778 27.7776786L25.5 6.00982143 47.2222222 27.7776786C47.6472222 28.2035714 48.1666667 28.3928571 48.7333333 28.3928571 49.3 28.3928571 49.8194444 28.15625 50.2444444 27.7776786 50.6694444 27.3991071 50.8583333 26.83125 50.8583333 26.2633929 50.8583333 25.6955357 50.6222222 25.175 50.2444444 24.7491071L50.2444444 24.7491071zM43.8694444 5.72589286L43.8694444 18.3607143 38.8166667 13.2973214 38.8166667 5.72589286 43.8694444 5.72589286 43.8694444 5.72589286zM49.3472222 26.8785714C49.0166667 27.2098214 48.45 27.2098214 48.1194444 26.8785714L25.925 4.6375C25.7833333 4.49553571 25.6416667 4.44821429 25.5 4.44821429 25.3583333 4.44821429 25.1694444 4.49553571 25.075 4.6375L2.88055556 26.8785714C2.55 27.2098214 1.98333333 27.2098214 1.65277778 26.8785714 1.51111111 26.6892857 1.41666667 26.5 1.41666667 26.2633929 1.41666667 26.0267857 1.51111111 25.8375 1.65277778 25.6482143L25.5 1.75089286 37.7305556 14.0071429 44.0583333 20.3482143 49.3472222 25.6482143C49.4888889 25.7901786 49.5833333 26.0267857 49.5833333 26.2633929 49.5833333 26.5 49.4888889 26.6892857 49.3472222 26.8785714L49.3472222 26.8785714z"/>
    </g>
  </g>
</svg>
